<svg xmlns="http://www.w3.org/2000/svg" width="30" height="41" fill="none" viewBox="0 0 30 41"><g clip-path="url(#clip0_455_10332)"><path fill="#000" d="M25.934 9.77461L25.9071 9.75879L25.845 9.73982C25.87 9.76094 25.9013 9.77318 25.934 9.77461Z"/><path fill="#000" d="M25.9411 9.75538C25.938 9.75498 25.9349 9.75425 25.932 9.75321V9.75929C25.9354 9.75886 25.9385 9.7575 25.9411 9.75538Z"/><path fill="#000" d="M26.3002 12.5593L26.3455 12.5335L26.3623 12.524L26.3777 12.5076C26.3489 12.5201 26.3227 12.5376 26.3002 12.5593Z"/><path fill="#000" d="M26.0096 9.82958L25.9654 9.78741L25.9353 9.77106C25.9514 9.79956 25.978 9.82057 26.0096 9.82958Z"/><path fill="#000" d="M14.867 36.9943C14.8316 37.0096 14.8006 37.0335 14.7769 37.0639L14.8047 37.0459C14.8237 37.0286 14.8507 37.008 14.867 36.9943Z"/><path fill="#000" d="M21.3425 35.7207C21.3425 35.6806 21.323 35.688 21.3278 35.8303C21.3278 35.8187 21.3325 35.8071 21.3346 35.7961C21.3373 35.7707 21.3393 35.7459 21.3425 35.7207Z"/><path fill="#000" d="M20.6705 36.9943C20.6351 37.0096 20.6041 37.0335 20.5803 37.0639L20.6083 37.0459C20.6273 37.0286 20.6542 37.008 20.6705 36.9943Z"/><path fill="#000" d="M10.3125 37.3019C10.2857 37.2786 10.2528 37.2633 10.2177 37.2577C10.2461 37.2714 10.2746 37.2851 10.2936 37.2956L10.3125 37.3019Z"/><path fill="#000" d="M9.29195 36.3177C9.28774 36.2762 9.275 36.236 9.25452 36.1996C9.26902 36.2375 9.28117 36.2762 9.29088 36.3156L9.29195 36.3177Z"/><path fill="#FD0" d="M16.1746 18.7498C14.7672 19.3523 13.17 20.0355 11.0999 20.0355C10.2339 20.0337 9.37211 19.915 8.53796 19.6823L9.96968 34.3816C10.0204 34.996 10.3002 35.5688 10.7538 35.9864C11.2073 36.404 11.8012 36.6358 12.4177 36.6356C12.4177 36.6356 14.4477 36.741 15.1251 36.741C15.8542 36.741 18.0401 36.6356 18.0401 36.6356C18.6566 36.6356 19.2504 36.4037 19.7038 35.9863C20.1572 35.5687 20.4371 34.9959 20.4877 34.3816L22.0212 18.1383C21.3359 17.9042 20.6443 17.7488 19.8646 17.7488C18.5163 17.7482 17.4297 18.2127 16.1746 18.7498Z"/><path fill="#000" d="M4.10376 12.4898L4.12801 12.5124L4.14383 12.5219C4.13165 12.5099 4.11822 12.4991 4.10376 12.4898Z"/><path fill="#000" d="M28.643 11.1279L28.4274 10.0404C28.2339 9.06471 27.7948 8.14274 26.7932 7.79008C26.4722 7.67728 26.108 7.62878 25.8618 7.39526C25.6156 7.16174 25.5428 6.79906 25.4859 6.46275C25.3806 5.84546 25.2815 5.22766 25.1734 4.61144C25.0801 4.08166 25.0063 3.48651 24.7632 3.00049C24.447 2.3479 23.7906 1.96625 23.138 1.71375C22.8036 1.58892 22.4624 1.48332 22.116 1.39746C20.4855 0.967317 18.7713 0.809176 17.0939 0.719035C15.0806 0.607941 13.0619 0.641412 11.0534 0.819192C9.55842 0.955193 7.98386 1.11966 6.56322 1.63679C6.04398 1.82603 5.50893 2.05322 5.11411 2.45438C4.62966 2.94726 4.47153 3.7095 4.82524 4.32414C5.07668 4.76062 5.50261 5.06899 5.95437 5.27299C6.54281 5.53585 7.15734 5.73586 7.78777 5.86971C9.54314 6.25769 11.3612 6.41003 13.1546 6.47487C15.1423 6.5551 17.1331 6.49008 19.1113 6.28035C19.6004 6.22659 20.0888 6.1621 20.5762 6.0869C21.1503 5.99887 21.5187 5.24822 21.3495 4.72529C21.1471 4.10011 20.6031 3.85762 19.9879 3.95198C19.8972 3.96622 19.8071 3.97939 19.7164 3.99257L19.6511 4.00206C19.4426 4.02842 19.2343 4.05302 19.0258 4.07586C18.5954 4.12225 18.1638 4.16021 17.7312 4.18973C16.7623 4.2572 15.7908 4.2883 14.8198 4.28987C13.8657 4.28987 12.9111 4.26299 11.959 4.20026C11.5247 4.17179 11.0913 4.1356 10.6591 4.09167C10.4625 4.07112 10.2664 4.04951 10.0703 4.02526L9.88366 4.00153L9.84308 3.99574L9.64962 3.96779C9.25427 3.90823 8.85891 3.8397 8.46777 3.75694C8.4283 3.74818 8.393 3.72623 8.3677 3.6947C8.34239 3.66317 8.3286 3.62394 8.3286 3.58351C8.3286 3.54309 8.34239 3.50386 8.3677 3.47233C8.393 3.4408 8.4283 3.41883 8.46777 3.41008H8.47515C8.8141 3.33786 9.15569 3.27619 9.49833 3.22242C9.61254 3.2045 9.7271 3.18693 9.84203 3.1697H9.84518C10.0597 3.15547 10.2753 3.11699 10.4888 3.09169C12.3463 2.89848 14.2148 2.83262 16.0812 2.89454C16.9874 2.9209 17.893 2.97414 18.795 3.06586C18.9889 3.0859 19.1819 3.10698 19.3748 3.1307C19.4487 3.13966 19.523 3.15021 19.5972 3.15917L19.747 3.18078C20.1834 3.24579 20.6176 3.32469 21.0496 3.41746C21.6895 3.55663 22.5113 3.60197 22.796 4.30306C22.8866 4.52551 22.9278 4.77274 22.9778 5.00626L23.0416 5.30409C23.0433 5.30944 23.0444 5.3149 23.0452 5.32043C23.1961 6.02329 23.347 6.72614 23.4982 7.42899C23.5091 7.48091 23.5095 7.53456 23.4988 7.58659C23.4883 7.63862 23.4671 7.68791 23.4367 7.73138C23.4062 7.77486 23.3671 7.81159 23.3218 7.83929C23.2764 7.86698 23.2259 7.88505 23.1734 7.89235H23.1691L23.0769 7.90501L22.9857 7.91713C22.6969 7.95473 22.4076 7.98987 22.118 8.02256C21.5476 8.08757 20.9764 8.14379 20.4043 8.19123C19.2674 8.28577 18.1283 8.34781 16.9868 8.37733C16.4052 8.39278 15.8239 8.39999 15.2426 8.39894C12.9289 8.39711 10.6173 8.26264 8.31911 7.99619C8.0703 7.96667 7.8215 7.93505 7.57269 7.90289C7.76562 7.92767 7.43247 7.88392 7.365 7.87443C7.20685 7.85229 7.04871 7.82927 6.89057 7.80537C6.35974 7.72577 5.83207 7.62773 5.3023 7.54181C4.66182 7.43638 4.04929 7.48909 3.46996 7.80537C2.99442 8.0656 2.60954 8.46464 2.36666 8.94927C2.11679 9.46586 2.04246 10.0283 1.93071 10.5834C1.81896 11.1385 1.645 11.7357 1.71089 12.3056C1.85269 13.5354 2.71246 14.5348 3.94913 14.7584C5.11253 14.9692 6.28225 15.14 7.45514 15.2855C12.0625 15.8498 16.7171 15.9172 21.339 15.4868C21.7153 15.4517 22.0912 15.4133 22.4665 15.372C22.5838 15.3591 22.7024 15.3725 22.8137 15.4115C22.925 15.4504 23.0263 15.5137 23.1099 15.5968C23.1936 15.6799 23.2577 15.7807 23.2974 15.8916C23.3371 16.0027 23.3514 16.1212 23.3394 16.2386L23.2224 17.3761C22.9866 19.6748 22.7508 21.9733 22.515 24.2716C22.269 26.6852 22.0214 29.0986 21.7722 31.5119C21.7019 32.1915 21.6316 32.8711 21.5614 33.5504C21.4939 34.2193 21.4844 34.9094 21.3574 35.5704C21.1571 36.6099 20.4534 37.2482 19.4265 37.4818C18.4857 37.6959 17.5247 37.8082 16.5599 37.817C15.4903 37.8228 14.4212 37.7754 13.3518 37.7811C12.2099 37.7875 10.8114 37.682 9.93005 36.8323C9.15569 36.0859 9.04868 34.9172 8.94325 33.9067C8.80268 32.5688 8.66334 31.2311 8.52523 29.8936L7.75034 22.4562L7.24902 17.6439C7.24059 17.5643 7.23215 17.4858 7.22425 17.4057C7.16415 16.8316 6.75773 16.2697 6.11725 16.2986C5.56903 16.3229 4.94595 16.7889 5.01027 17.4057L5.38189 20.9733L6.15046 28.3532C6.3694 30.4496 6.58781 32.5462 6.8057 34.6431C6.84787 35.0448 6.8874 35.4475 6.93169 35.8492C7.17259 38.0442 8.84889 39.2271 10.9248 39.5603C12.1372 39.7553 13.3792 39.7954 14.6095 39.8154C16.1867 39.8407 17.7796 39.9013 19.3311 39.6156C21.6299 39.1939 23.3547 37.6588 23.6009 35.2778C23.6712 34.5904 23.7415 33.9028 23.8118 33.2151C24.0455 30.9407 24.2788 28.666 24.5118 26.3913L25.274 18.9586L25.6235 15.5522C25.6409 15.3833 25.7123 15.2245 25.827 15.0993C25.9416 14.974 26.0936 14.8891 26.2603 14.8569C26.9177 14.7288 27.546 14.51 28.0136 14.0098C28.7579 13.2133 28.906 12.1748 28.643 11.1279ZM3.91539 11.8628C3.92541 11.858 3.90695 11.944 3.89906 11.984C3.89747 11.9234 3.90063 11.8696 3.91539 11.8628ZM3.97918 12.3562C3.98445 12.3524 4.00026 12.3736 4.0166 12.3988C3.99182 12.3756 3.97655 12.3583 3.97918 12.3562ZM4.0419 12.4389C4.06458 12.4775 4.0767 12.5017 4.0419 12.4389V12.4389ZM4.16789 12.5412H4.17106C4.17106 12.5449 4.17685 12.5485 4.17897 12.5523C4.17547 12.5482 4.17211 12.5445 4.16789 12.5412ZM26.2297 12.3883C25.9936 12.6129 25.6378 12.7172 25.2862 12.7695C21.3432 13.3546 17.3427 13.6508 13.3564 13.5201C10.5036 13.4226 7.68075 13.1058 4.85634 12.7067C4.57958 12.6677 4.27965 12.6171 4.08935 12.4131C3.7309 12.0283 3.90695 11.2534 4.00026 10.7885C4.08566 10.3625 4.24907 9.7948 4.75565 9.73417C5.54636 9.64141 6.46465 9.97509 7.24692 10.0937C8.18874 10.2374 9.13407 10.3525 10.0829 10.439C14.1324 10.808 18.2499 10.7505 22.2815 10.2107C23.0163 10.112 23.7484 9.99722 24.478 9.86649C25.128 9.74999 25.8487 9.53123 26.2414 10.2044C26.5107 10.663 26.5466 11.2766 26.5049 11.7948C26.4921 12.0205 26.3939 12.2329 26.2297 12.3883Z"/></g><defs><clipPath id="clip0_455_10332"><rect width="30" height="40" fill="#fff" transform="translate(0 0.485352)"/></clipPath></defs></svg>