<svg width="23" height="24" viewBox="0 0 23 24" fill="none" xmlns="http://www.w3.org/2000/svg">
<path d="M12.6841 16C13.0983 16 13.4341 16.3358 13.4341 16.75C13.4341 17.1642 13.0983 17.5 12.6841 17.5H9.68408C9.26987 17.5 8.93408 17.1642 8.93408 16.75C8.93408 16.3358 9.26987 16 9.68408 16H12.6841ZM15.6841 11C16.0983 11 16.4341 11.3358 16.4341 11.75C16.4341 12.1642 16.0983 12.5 15.6841 12.5H6.68408C6.26987 12.5 5.93408 12.1642 5.93408 11.75C5.93408 11.3358 6.26987 11 6.68408 11H15.6841ZM18.6841 6C19.0983 6 19.4341 6.33579 19.4341 6.75C19.4341 7.16421 19.0983 7.5 18.6841 7.5H3.68408C3.26987 7.5 2.93408 7.16421 2.93408 6.75C2.93408 6.33579 3.26987 6 3.68408 6H18.6841Z" fill="#D6D6D6"/>
</svg>
