<svg width="40" height="42" viewBox="0 0 40 42" fill="none" xmlns="http://www.w3.org/2000/svg">
<path fill-rule="evenodd" clip-rule="evenodd" d="M33.4102 11.2318C33.84 11.7794 34.3959 12.0712 35.097 12.0716C35.097 12.0716 35.097 12.0716 35.0969 12.0716H35.0981C35.0977 12.0716 35.0974 12.0716 35.097 12.0716C36.2786 12.0668 37.035 11.1936 36.8635 10.0227C36.8289 9.78807 36.786 9.55221 36.7146 9.32708C36.5037 8.66478 36.5633 8.06205 36.9814 7.47837C37.1868 7.19198 37.3498 6.87504 37.5124 6.55879C37.5676 6.45149 37.6227 6.34427 37.6794 6.23835C38.2226 5.22346 37.92 3.27112 37.1005 2.45278C36.7944 2.14664 36.4215 1.9501 35.9998 1.91674C34.7229 1.81669 33.5413 1.40096 32.3834 0.888756C31.9558 0.698706 31.5208 0.525107 31.0859 0.351554C30.9974 0.316253 30.909 0.280954 30.8206 0.245518C29.284 -0.370322 27.7688 0.645755 27.7557 2.29792V2.29812C27.7545 2.58036 27.7533 2.86261 27.7605 3.14485C27.7759 3.76784 28.0475 4.26099 28.555 4.61239C28.9326 4.87445 29.3185 5.12817 29.7211 5.34973C30.0797 5.54746 30.3274 5.81071 30.4466 6.2038C31.0255 8.12041 32.2 9.68682 33.4102 11.2318ZM36.5812 4.23966C36.6627 4.48785 36.7414 4.7274 36.7717 4.95545L36.7705 4.95664C36.761 5.26515 36.6741 5.48314 36.5573 5.69279C36.4661 5.85753 36.376 6.0229 36.2859 6.18828C36.071 6.58252 35.8561 6.97681 35.627 7.36282C35.3137 7.89171 35.247 8.44322 35.3828 9.03286C35.4638 9.37949 35.5401 9.72732 35.6056 10.0763C35.6076 10.0874 35.6097 10.0986 35.6118 10.1098C35.6537 10.3329 35.6986 10.5724 35.4638 10.7255C35.2018 10.8947 34.9183 10.8589 34.6633 10.7065C34.5407 10.6326 34.4394 10.5135 34.3477 10.3991C33.2101 8.96853 32.1392 7.49862 31.5925 5.7178C31.4019 5.09481 31.0064 4.62906 30.4251 4.32293C30.3463 4.28146 30.2721 4.2301 30.198 4.17885C30.0998 4.11086 30.0019 4.04308 29.8939 3.99893C29.1303 3.68684 28.9171 3.12222 28.9898 2.33247C29.0612 1.55105 29.633 1.12104 30.3548 1.4093C30.4874 1.46229 30.6203 1.51482 30.7531 1.56736C31.2265 1.75457 31.7001 1.94186 32.1642 2.15022C33.2935 2.65885 34.4585 3.02931 35.6973 3.13413C36.1118 3.16868 36.3358 3.38547 36.4394 3.77737C36.4809 3.93424 36.5316 4.08855 36.5812 4.23966ZM22.449 38.7825C22.4501 38.8789 22.4514 38.9806 22.4514 39.0899H22.4525C22.4601 39.235 22.4568 39.3895 22.4533 39.55C22.447 39.848 22.4402 40.1665 22.5014 40.4824C22.6408 41.2102 23.2697 41.7999 24.0833 41.9166C24.7706 42.0155 25.2459 41.6831 25.5794 41.0994C25.7628 40.7766 25.951 40.455 26.1678 40.1548C26.6848 39.4389 26.8516 38.6551 26.6931 37.7915C26.6695 37.663 26.6563 37.5323 26.6431 37.4019C26.6264 37.2361 26.6096 37.0707 26.5716 36.9101C26.5085 36.642 26.611 36.5027 26.823 36.3657C27.1147 36.1773 27.401 35.9799 27.6876 35.7824C27.8902 35.6427 28.0929 35.503 28.2977 35.3663C28.7062 35.0947 29.0588 34.7504 29.1732 34.2775C29.4936 32.9589 30.3251 32.0703 31.4519 31.3997C31.6675 31.271 31.8629 31.1054 32.0547 30.9422C32.4263 30.6254 32.7932 30.224 32.7777 29.7558C32.7479 28.8124 33.3745 28.5873 34.0546 28.3538C34.1666 28.3145 34.2738 28.2609 34.3763 28.2013C34.8718 27.9095 35.1708 27.3377 35.0421 26.8053C34.7682 25.6701 34.1225 24.8505 32.9468 24.5539C32.4442 24.4265 31.9308 24.3324 31.4162 24.2681C30.9933 24.2156 30.7253 24.031 30.5371 23.6427C30.2048 22.953 29.6306 22.5754 28.8694 22.4551C28.7044 22.4291 28.5393 22.4033 28.3741 22.3774C26.795 22.1297 25.2149 21.8819 23.6425 21.595C22.8897 21.4581 22.175 21.3961 21.4972 21.8261C21.2537 21.9807 21.1389 21.8155 21.0268 21.6543C21.0188 21.6428 21.0109 21.6314 21.0029 21.6201C20.9916 21.6041 20.9803 21.5882 20.969 21.5723C20.4446 20.8328 19.9218 20.0957 18.8969 20.0024C18.6848 19.9834 18.6717 19.8512 18.7801 19.688C18.8225 19.624 18.8654 19.5602 18.9082 19.4963C19.0641 19.2642 19.2203 19.0315 19.3567 18.7886C19.4996 18.5349 19.6306 18.4944 19.8701 18.6814C20.3025 19.0197 20.7468 19.3461 21.2018 19.6522C21.776 20.0394 22.3978 19.9858 22.9874 19.7142C23.5472 19.4557 23.7891 18.9328 23.7247 18.3515C23.5889 17.1091 23.9975 16.0882 24.8266 15.196C24.9564 15.0555 25.0708 14.8947 25.1661 14.7279C25.3161 14.467 25.5163 14.3503 25.8212 14.3884C27.1089 14.5492 28.2429 14.0608 29.3519 13.5093C30.094 13.14 30.555 12.4968 30.4525 11.6785C30.2953 10.4265 29.8939 9.2294 29.2018 8.15138C29.1315 8.0406 29.0314 7.94055 28.9266 7.86193C28.094 7.23775 27.2387 6.64097 26.3263 6.14782C25.5687 5.73924 24.773 5.91792 24.0714 6.3253C23.3995 6.71601 23.4174 7.39737 23.5341 8.07158C23.5366 8.08603 23.5393 8.10049 23.542 8.11491C23.5665 8.24544 23.5904 8.37289 23.4424 8.46943C23.2995 8.56234 23.1684 8.54805 23.0255 8.473C22.8567 8.38379 22.6865 8.2969 22.5163 8.20999C22.2638 8.08106 22.0112 7.95209 21.7629 7.81547C21.3614 7.5951 21.2232 7.24966 21.3114 6.80297C21.3674 6.51589 21.5508 6.33603 21.7724 6.17522C21.9758 6.02787 22.18 5.88153 22.3842 5.73517C22.9527 5.32778 23.5213 4.92029 24.0726 4.49089C24.736 3.9751 24.96 3.14366 24.692 2.41466C24.424 1.68327 23.7712 1.26517 22.9016 1.29376C21.7891 1.32949 20.6753 1.36999 19.5627 1.42955C18.6694 1.4772 18.0607 1.94057 17.7712 2.7875C17.6807 3.05194 17.5687 3.09959 17.3198 2.99595C16.3406 2.58738 15.3245 2.60882 14.2965 2.75534C13.8856 2.8137 13.4699 2.85778 13.0553 2.87565C11.7415 2.93401 10.7909 3.5165 10.2989 4.76128C10.2013 5.00548 10.0667 5.0698 9.82365 5.01381C9.54098 4.9497 9.25652 4.89183 8.97191 4.83392C8.79119 4.79716 8.6104 4.76037 8.42997 4.72198C7.80698 4.58856 7.21735 4.67909 6.67417 5.01143C5.7117 5.59988 4.75399 6.19547 3.79747 6.79463C3.23404 7.14841 2.79926 7.68206 2.86359 8.32172C2.96245 9.30921 2.48241 9.76901 1.71291 10.1978C0.966036 10.6136 0.767109 11.501 1.1066 12.3062C1.45204 13.1246 2.20248 13.5879 3.02916 13.3878C3.15522 13.3572 3.28162 13.3272 3.40808 13.2971C4.98077 12.9232 6.56229 12.5472 7.6152 11.115C7.6466 11.0729 7.6874 11.0381 7.72838 11.0031C7.75582 10.9797 7.78334 10.9562 7.80818 10.9304C7.90109 10.8351 8.00115 10.8006 8.12622 10.8685C8.87428 11.277 9.60328 11.2115 10.3204 10.7827C10.4347 10.7136 10.5777 10.6541 10.6563 10.8339C10.6797 10.8878 10.7038 10.9413 10.7278 10.9946C10.9144 11.4101 11.0976 11.8179 10.9815 12.3193C10.8658 12.8172 10.7732 13.32 10.6807 13.8229C10.6094 14.2103 10.5381 14.5977 10.4562 14.9828C10.3239 15.6022 10.4538 16.1549 10.891 16.5861C11.9094 17.5903 12.4693 18.791 12.5836 20.2109C12.594 20.3394 12.6215 20.4665 12.649 20.5938C12.6593 20.6413 12.6695 20.6887 12.6789 20.7362C12.86 21.6677 13.1744 21.9869 14.0964 22.1204C14.4383 22.1704 14.7099 22.3098 14.9529 22.5468C15.1757 22.7647 15.4019 22.9795 15.6282 23.1943C16.0053 23.5524 16.3826 23.9105 16.7444 24.2835C17.2209 24.7755 17.77 25.0745 18.4502 25.1531C18.7082 25.1826 18.9645 25.2246 19.2209 25.2667C19.3894 25.2943 19.558 25.322 19.7271 25.3461C20.4212 25.4438 20.559 25.7781 20.1405 26.3491C19.5211 27.1936 19.477 28.411 20.0416 29.277C20.2685 29.6254 20.4993 29.9711 20.7301 30.3169C20.9609 30.6626 21.1917 31.0084 21.4186 31.3568C21.6497 31.7117 21.9606 31.9619 22.3751 32.0238C22.7551 32.0798 22.817 32.224 22.6419 32.5468C22.5359 32.7397 22.4621 32.953 22.3906 33.1638C22.2608 33.5474 22.287 33.9214 22.4823 34.2823C22.7285 34.7381 22.6916 35.1666 22.3715 35.5676C22.3531 35.5908 22.3342 35.6137 22.3153 35.6367C22.2585 35.7055 22.2018 35.7743 22.1571 35.8511C21.8629 36.3585 21.8367 36.8862 22.1929 37.3556C22.4001 37.6283 22.474 37.8892 22.4549 38.212C22.4444 38.3938 22.4465 38.5762 22.449 38.7825ZM23.6961 38.8106C23.6961 38.9481 23.6964 39.0858 23.6967 39.2235C23.6972 39.5011 23.6977 39.7788 23.6961 40.056C23.6926 40.399 23.9046 40.5682 24.1952 40.6527C24.3998 40.7124 24.4594 40.5755 24.5167 40.444C24.5371 40.3971 24.5572 40.3508 24.5836 40.3144C24.6576 40.2127 24.721 40.1028 24.7843 39.993C24.8624 39.8574 24.9405 39.7219 25.0386 39.6021C25.4889 39.0482 25.5615 38.4288 25.4281 37.7558C25.3956 37.592 25.3766 37.4257 25.3575 37.2593C25.3443 37.145 25.3312 37.0307 25.3138 36.9172C25.2173 36.2954 25.4317 35.8094 25.9463 35.4544C26.0426 35.3879 26.1388 35.3211 26.235 35.2542C26.6144 34.9903 26.9942 34.7262 27.3876 34.4848C27.7628 34.2537 28.0166 33.9559 28.1321 33.5307C28.4609 32.3121 29.1696 31.3794 30.2524 30.7266C30.3816 30.6486 30.5023 30.5565 30.623 30.4643C30.727 30.3848 30.8312 30.3053 30.9409 30.2347C31.4162 29.9297 31.6568 29.52 31.6532 28.9387C31.6497 28.3133 31.9772 27.8761 32.5573 27.6343C32.6801 27.583 32.8024 27.5304 32.9248 27.4778C33.1431 27.384 33.3616 27.2901 33.5829 27.2031C33.7938 27.1209 33.8355 27.0125 33.7497 26.7957C33.5186 26.2085 33.116 25.838 32.493 25.7201C32.3615 25.6951 32.2301 25.6672 32.0986 25.6393C31.7787 25.5713 31.4584 25.5033 31.1351 25.4771C30.3394 25.4116 29.8081 25.0185 29.49 24.3062C29.3149 23.9155 29.0064 23.7356 28.5931 23.6701C26.9659 23.4128 25.34 23.1507 23.7164 22.8708C23.0517 22.7565 22.4299 22.6945 21.7855 23.0411C21.2375 23.3366 20.6336 23.1293 20.225 22.6516C20.2135 22.638 20.2019 22.6244 20.1903 22.6108C20.0668 22.4659 19.9421 22.3195 19.8462 22.1573C19.527 21.6201 19.0851 21.3175 18.4609 21.1603C17.508 20.9208 17.1709 19.956 17.6771 19.1114C17.8243 18.8655 17.9806 18.6257 18.1369 18.3859C18.1995 18.29 18.262 18.1941 18.3239 18.0977C18.9421 17.1412 19.6771 17.009 20.611 17.6856C20.6782 17.7344 20.7455 17.7832 20.8127 17.832C21.1423 18.0711 21.4717 18.31 21.7962 18.5563C21.9725 18.6898 22.1643 18.6874 22.3465 18.6254C22.5073 18.5709 22.5004 18.4326 22.4938 18.3012C22.4921 18.266 22.4904 18.2314 22.4919 18.199C22.4931 18.1689 22.4943 18.1389 22.4956 18.1088C22.5066 17.8419 22.5177 17.5735 22.5038 17.308C22.468 16.5909 22.692 15.9715 23.1315 15.4081C23.5246 14.9054 23.8963 14.3848 24.2584 13.8595C24.5991 13.364 25.0541 13.0888 25.6532 13.152C26.7337 13.2639 27.7009 12.9328 28.6479 12.4766C29.1732 12.224 29.3364 11.8822 29.1541 11.3175C28.9734 10.7556 28.7815 10.1976 28.5897 9.64004C28.5741 9.59488 28.5586 9.54972 28.5431 9.50457C28.4561 9.24965 28.3441 8.99593 28.1285 8.82917C27.3876 8.2574 26.5955 7.75829 25.795 7.27587C25.4746 7.08289 25.1017 7.1901 24.8158 7.36282C24.656 7.46003 24.7074 7.65917 24.7542 7.84057C24.7671 7.89035 24.7796 7.93879 24.7873 7.98343C24.8873 8.58021 24.7325 9.07693 24.2393 9.43786C23.7116 9.8238 23.147 9.95602 22.5324 9.62368C22.3167 9.50754 22.0982 9.39705 21.8796 9.28657C21.661 9.17609 21.4424 9.06561 21.2268 8.94948C19.7414 8.14543 19.608 6.23477 20.9683 5.22465C21.4582 4.86064 21.954 4.50381 22.4499 4.14696C22.6534 4.0005 22.8569 3.85405 23.06 3.70709C23.0775 3.69438 23.0951 3.6818 23.1127 3.66921C23.2403 3.57796 23.3681 3.48658 23.4508 3.34735C23.6914 2.94116 23.4853 2.53378 23.0184 2.54688C21.9858 2.57592 20.9541 2.62342 19.9217 2.67095C19.8108 2.67606 19.6999 2.68116 19.5889 2.68625C19.2542 2.70173 19.0541 2.89232 18.9398 3.20441C18.561 4.23597 17.9725 4.52781 16.9267 4.17999C16.2822 3.96558 15.6438 3.84407 14.96 3.94652C14.3585 4.03705 13.7498 4.10256 13.1423 4.12043C12.2668 4.14664 11.7045 4.53853 11.3793 5.35807C11.0708 6.13829 10.4859 6.41345 9.66046 6.25026C9.58005 6.23435 9.4996 6.21862 9.41916 6.2029C9.04795 6.13035 8.67679 6.05781 8.30966 5.96676C7.89156 5.86313 7.52348 5.93817 7.16375 6.16688C6.99423 6.27492 6.82588 6.38552 6.65746 6.49617C6.1667 6.8186 5.67538 7.1414 5.15303 7.40213C4.31921 7.81785 3.91421 8.38486 4.05238 9.34256C4.13338 9.90957 3.82249 10.3348 3.34006 10.6314C3.21542 10.7076 3.09149 10.785 2.96753 10.8623C2.81428 10.958 2.66098 11.0537 2.50623 11.1472C2.24775 11.3032 2.1191 11.495 2.24655 11.8119C2.37758 12.1371 2.60272 12.2181 2.92315 12.143C4.44667 11.7821 5.94874 11.3854 6.94814 10.0287C6.97873 9.98756 7.02144 9.9539 7.06308 9.9211C7.06847 9.91685 7.07385 9.91261 7.07917 9.90838C7.47822 9.58676 7.94278 9.43905 8.40853 9.66418C8.95886 9.92982 9.42699 9.8643 9.9523 9.5939C10.5205 9.30087 11.1935 9.42952 11.5282 9.90718C12.0464 10.6457 12.4145 11.4569 12.2334 12.4051C12.1981 12.5896 12.1636 12.7743 12.1291 12.9591C12.0111 13.5915 11.8929 14.2244 11.7426 14.8494C11.6271 15.3294 11.6926 15.6975 12.0535 16.0549C13.0255 17.0161 13.6104 18.174 13.7319 19.5534C13.748 19.7349 13.7837 19.9144 13.8193 20.0937C13.8445 20.2204 13.8697 20.347 13.888 20.4741C13.9261 20.7422 14.0333 20.8839 14.337 20.9065C14.9064 20.947 15.3793 21.2222 15.7855 21.6177C15.9958 21.8219 16.2085 22.024 16.4212 22.226C16.8336 22.6178 17.2461 23.0097 17.6414 23.4176C17.9523 23.7392 18.3096 23.8785 18.7361 23.9357C18.7815 23.9419 18.827 23.9481 18.8725 23.9544C19.5326 24.0444 20.1949 24.1348 20.8456 24.2752C21.8236 24.486 22.2298 25.5248 21.6854 26.3645C21.5886 26.5145 21.4801 26.6571 21.3716 26.7996C21.2999 26.8937 21.2283 26.9878 21.1601 27.084C20.8302 27.5521 20.8182 28.1894 21.1303 28.6659C21.26 28.8631 21.3912 29.0592 21.5225 29.2554C21.771 29.6269 22.0194 29.9984 22.2572 30.3764C22.4311 30.654 22.636 30.8219 22.9719 30.9006C23.7998 31.0959 24.2048 31.894 23.9237 32.7016C23.8462 32.9256 23.7593 33.1483 23.6509 33.3591C23.5484 33.5593 23.5889 33.7129 23.7033 33.894C24.3001 34.835 24.2715 35.2114 23.5651 36.0846C23.5469 36.1071 23.529 36.1297 23.511 36.1523C23.4549 36.2231 23.399 36.2935 23.3376 36.3585C23.1887 36.5134 23.1708 36.6468 23.3388 36.8124C23.6187 37.0899 23.7057 37.4461 23.6985 37.8332C23.6936 38.0577 23.6949 38.2827 23.6962 38.5074C23.6967 38.6096 23.6973 38.7116 23.6973 38.8136L23.6961 38.8106Z" fill="white"/>
</svg>
