<svg width="48" height="42" viewBox="0 0 48 42" fill="none" xmlns="http://www.w3.org/2000/svg">
<path fill-rule="evenodd" clip-rule="evenodd" d="M32.3649 33.118C32.3646 32.9632 32.3643 32.8085 32.3643 32.6537L32.3656 32.6577V30.9653C32.3643 30.5369 32.5665 30.328 33.0056 30.3307C33.9849 30.3386 34.9641 30.3386 35.9434 30.3293C36.1948 30.3267 36.3824 30.4065 36.5514 30.5941C36.9226 31.0063 37.3026 31.4098 37.6822 31.8128C37.7462 31.8807 37.8101 31.9485 37.8739 32.0164C38.3396 32.5127 38.8998 32.7109 39.5823 32.5925C40.1124 32.5007 40.6456 32.4259 41.1784 32.3512C41.4174 32.3177 41.6562 32.2843 41.8947 32.2492C42.3295 32.1853 42.7645 32.1228 43.1995 32.0603C44.1757 31.9202 45.152 31.78 46.1258 31.6226C47.27 31.439 47.8847 30.489 47.6306 29.3594C47.443 28.5278 46.968 27.9238 46.1936 27.5659C45.747 27.3595 45.2997 27.1553 44.8525 26.9512C44.4405 26.7632 44.0287 26.5752 43.6178 26.3857C43.1228 26.1568 43.0909 26.0557 43.3663 25.6033C43.6424 25.1491 43.9244 24.6971 44.2056 24.2465L44.2564 24.1651C45.0121 22.9516 45.0826 21.7103 44.4227 20.4343C44.3157 20.2283 44.2122 20.0207 44.1086 19.813C43.9532 19.5015 43.7979 19.19 43.6311 18.8843C43.486 18.6182 43.4993 18.4093 43.6816 18.1591C44.2458 17.3808 44.7992 16.5931 45.3341 15.7935C46.0459 14.7304 45.6308 13.5276 44.4174 13.1165C43.9359 12.954 43.4505 12.8023 42.9651 12.6506C42.7074 12.57 42.4498 12.4895 42.1928 12.4073L42.1811 12.4036C41.4222 12.1612 41.4052 12.1557 41.4264 11.3443C41.4437 10.6697 41.304 10.0364 40.6986 9.70508C40.044 9.34718 39.7313 8.79501 39.4666 8.16036C39.2244 7.57893 38.9796 6.99483 38.6816 6.44267C38.1347 5.43015 37.7861 4.38437 37.8912 3.21618C37.9034 3.08041 37.8816 2.94077 37.8599 2.80198C37.8532 2.75853 37.8464 2.71515 37.8407 2.67201C37.681 1.49317 36.8148 0.49263 35.6693 0.206571C34.3201 -0.130048 33.281 0.0455788 32.8007 1.77125C32.5375 2.71665 32.2354 3.65157 31.9333 4.58652C31.5986 5.62265 31.2638 6.65881 30.9819 7.70932C30.5907 9.16623 29.9002 10.4009 28.8651 11.4693C28.8407 11.4946 28.8174 11.5217 28.794 11.5487C28.6868 11.6728 28.5795 11.797 28.3807 11.7501C28.1381 11.6929 28.1219 11.4958 28.1069 11.3132C28.1044 11.2835 28.102 11.2541 28.0987 11.2259C28.0727 11.0073 28.0452 10.7888 28.0178 10.5704C27.9273 9.84984 27.8368 9.12935 27.798 8.40651C27.7142 6.85513 26.9012 5.96369 25.4563 5.502C23.9674 5.02568 22.6436 5.54591 21.9863 6.96689C21.8514 7.25827 21.7132 7.54852 21.575 7.83882C21.1925 8.64212 20.8099 9.44577 20.4961 10.2745C19.799 12.1146 18.7811 13.6926 17.1645 14.8528C17.0569 14.9303 16.9641 15.0295 16.872 15.128C16.8502 15.1513 16.8285 15.1745 16.8066 15.1974C15.9684 16.0782 15.5373 17.1293 15.5293 18.3428C15.5274 18.6738 15.5527 19.0054 15.578 19.3368C15.5881 19.469 15.5982 19.6011 15.6065 19.7331C15.677 20.8681 16.4913 21.5653 17.6116 21.4096C18.0933 21.3426 18.5732 21.2618 19.0532 21.181C19.6033 21.0884 20.1535 20.9957 20.7064 20.9239C21.5393 20.8162 22.0528 20.3758 22.3589 19.6134C22.6832 18.8044 23.0215 18.0006 23.3598 17.197C23.51 16.8401 23.6602 16.4833 23.8091 16.1261C23.9289 15.8374 24.0739 15.5713 24.4544 15.6392C24.8097 15.703 25.2501 16.198 25.2155 16.4987C25.1533 17.0306 25.0875 17.5621 25.0216 18.0939C24.9551 18.6315 24.8885 19.1694 24.8256 19.7079C24.7977 19.954 24.6952 20.1336 24.505 20.2959C23.1412 21.4588 21.7841 22.6283 20.4296 23.8018C20.258 23.9509 20.0717 24.0307 19.8535 24.0653C19.5442 24.1137 19.2352 24.1633 18.9262 24.213C18.3514 24.3054 17.7768 24.3978 17.2005 24.4817C15.3071 24.7571 13.4245 25.0432 11.8186 26.218C11.0695 26.7662 10.2938 27.2798 9.51943 27.792C8.66524 28.3575 8.15965 29.1292 8.02926 30.1484C8.00165 30.3621 7.96376 30.5749 7.92584 30.7879C7.89979 30.9342 7.87372 31.0806 7.85097 31.2274C7.79775 31.5654 7.62478 31.6758 7.29083 31.576C6.71871 31.4044 6.14393 31.2487 5.56781 31.093C4.26924 30.7431 3.14496 31.1888 2.45309 32.3331C2.06724 32.9704 1.68805 33.613 1.31949 34.2623C0.865791 35.0633 0.756689 35.9161 0.985537 36.8089C1.30353 38.0489 2.58082 39.3395 3.65986 39.4686C4.56115 39.5768 5.4659 39.66 6.37062 39.7432C6.58911 39.7633 6.80761 39.7834 7.02605 39.8039C7.49173 39.8478 7.90818 39.7068 8.28206 39.426C9.39569 38.5891 10.5107 37.7536 11.627 36.9193C11.9849 36.6519 12.2164 36.3073 12.3494 35.8775C12.7499 34.579 12.7579 34.579 14.0472 35.0553C14.0775 35.0665 14.1079 35.0777 14.1381 35.089C14.559 35.2452 14.9738 35.3992 15.4442 35.2788C16.1064 35.1096 16.1094 35.119 16.3221 35.7766L16.3263 35.7897C16.6786 36.8802 16.7863 37.3631 17.0701 37.6955C17.3577 38.0323 17.8261 38.2146 18.9128 38.7182C18.9207 38.7218 18.929 38.7246 18.9375 38.7275C18.9447 38.7299 18.952 38.7324 18.9594 38.7355C19.8721 39.1147 20.729 38.8313 21.212 37.9704C21.4003 37.6343 21.576 37.2919 21.7518 36.9493C21.8182 36.8199 21.8846 36.6905 21.9517 36.5614C22.1722 36.1363 22.2804 35.9278 22.438 35.8789C22.596 35.83 22.8039 35.9417 23.225 36.157C23.6348 36.3658 23.7599 36.5867 23.6149 37.0564C23.2982 38.0795 23.4752 39.0575 24.0765 39.9489C24.3453 40.3481 24.6234 40.7406 24.9068 41.1291C25.604 42.0817 26.703 42.2055 27.5824 41.4231C27.8279 41.2052 28.0671 40.9805 28.3064 40.7559C28.5873 40.4921 28.8681 40.2284 29.1591 39.9755C29.6474 39.5511 29.9374 39.0508 29.988 38.3949C30.0056 38.1688 30.0435 37.9442 30.0814 37.7196C30.1264 37.4525 30.1714 37.1856 30.1823 36.9167C30.2049 36.3273 30.471 36.0585 31.0364 35.8988C31.9811 35.6327 32.3563 35.0486 32.3643 34.0481C32.3661 33.7376 32.3655 33.4277 32.3649 33.118ZM30.9766 32.4661H30.9739H30.9726C30.9726 32.6156 30.9716 32.7652 30.9706 32.9147C30.9681 33.28 30.9656 33.6451 30.9779 34.0095C30.9885 34.3195 30.8981 34.5271 30.5801 34.5949C29.4239 34.8398 28.8531 35.5649 28.8225 36.7344C28.8225 36.7427 28.82 36.7507 28.8176 36.7585C28.815 36.767 28.8125 36.7753 28.8132 36.7836C28.9598 38.4477 27.8671 39.3673 26.7727 40.2883C26.7348 40.3202 26.6969 40.3521 26.6591 40.384C26.4156 40.5889 26.2147 40.5649 26.0351 40.3042C25.9363 40.1615 25.8355 40.0202 25.7347 39.8789C25.5366 39.6012 25.3386 39.3237 25.1569 39.0362C24.8376 38.5332 24.795 37.9837 24.9573 37.4103C25.3033 36.1876 25.0358 35.5662 23.9156 34.9528C23.8837 34.9354 23.8519 34.9178 23.8201 34.9003C23.6485 34.8056 23.4771 34.711 23.3009 34.6269C22.4307 34.2144 21.5007 34.4938 21.027 35.3307C20.701 35.9082 20.3964 36.4976 20.109 37.095C19.9307 37.4662 19.7431 37.5207 19.3293 37.393C18.3407 37.0883 17.8684 36.4364 17.6821 35.4584C17.5291 34.6548 17.1406 33.9882 16.2478 33.7993C16.2339 33.7963 16.2197 33.7933 16.2054 33.7902C16.0387 33.7541 15.8463 33.7126 15.7103 33.7714C15.166 34.0076 14.6896 33.823 14.2031 33.6344C14.1662 33.6202 14.1294 33.6059 14.0924 33.5917C13.7997 33.4786 13.5003 33.3669 13.1943 33.3083C12.3521 33.146 11.4926 33.6423 11.3063 34.5351C11.1187 35.4411 10.6158 36.0146 9.88133 36.5016C9.16165 36.9788 8.47912 37.516 7.79848 38.0517C7.76187 38.0805 7.72526 38.1093 7.68865 38.1381C7.40525 38.3603 7.12717 38.4295 6.77193 38.3842C5.93371 38.2765 5.09149 38.1926 4.24795 38.1261C2.8243 38.0143 1.83972 36.3792 2.47438 35.0925C2.84692 34.3368 3.2953 33.613 3.753 32.9039C4.06035 32.4289 4.538 32.2612 5.10214 32.4169C5.3214 32.4776 5.54049 32.5389 5.75959 32.6002C6.1308 32.7041 6.50206 32.8079 6.87438 32.9092C8.12373 33.2471 9.12826 32.6457 9.22273 31.3631C9.32384 29.9994 9.86004 29.0095 11.1001 28.3881C11.5193 28.1779 11.9025 27.8871 12.2809 27.5999C12.3264 27.5654 12.3719 27.5309 12.4173 27.4967C13.6946 26.5347 15.1741 26.1675 16.7228 25.9652C17.4442 25.871 18.1628 25.7528 18.8814 25.6346C19.2589 25.5724 19.6365 25.5103 20.0145 25.4517C20.4988 25.3772 20.9352 25.2162 21.3144 24.8849C22.4093 23.9303 23.5107 22.9839 24.6123 22.0374C24.9203 21.7727 25.2283 21.5081 25.5361 21.2433C25.918 20.9146 26.1335 20.5062 26.1921 20.0019C26.2186 19.7728 26.2446 19.5435 26.2706 19.3142C26.3734 18.4062 26.4763 17.4976 26.6165 16.5958C26.7908 15.4782 25.6905 14.5441 24.8003 14.2967C23.8663 14.0372 22.9935 14.5122 22.5704 15.4981C22.0675 16.6703 21.5725 17.8465 21.0935 19.028C20.9685 19.3353 20.8008 19.5096 20.4576 19.5575C19.4889 19.6932 18.5243 19.8502 17.5597 20.0152C17.1752 20.0804 16.9996 19.9553 16.9929 19.5562C16.9896 19.3665 16.9751 19.1768 16.9605 18.9873C16.9394 18.7129 16.9183 18.4389 16.9317 18.1658C16.9716 17.3568 17.2923 16.653 17.883 16.0915C17.9664 16.0121 18.0495 15.9323 18.1327 15.8525C18.5527 15.4496 18.9735 15.0459 19.4277 14.6839C20.1502 14.1077 20.6252 13.3866 20.9884 12.5457C21.5305 11.2907 22.1021 10.0474 22.6736 8.80437C22.8497 8.42125 23.0258 8.03815 23.2011 7.65477C23.543 6.90569 24.0047 6.58504 24.6593 6.74071C25.733 6.99616 26.2785 7.26759 26.3783 8.2362C26.4954 9.37379 26.6231 10.5114 26.7575 11.6476C26.844 12.3821 27.2618 12.8797 27.9563 13.0859C28.6482 13.2921 29.2642 13.1019 29.7631 12.5617C30.9234 11.3057 31.8374 9.93792 32.2831 8.23354C32.6338 6.89105 33.06 5.56895 33.4863 4.24679C33.7313 3.48679 33.9764 2.72677 34.2071 1.96284C34.3348 1.53841 34.541 1.41201 34.9588 1.47322C35.825 1.59961 36.3651 2.12251 36.4796 2.99266C36.4819 3.0103 36.4845 3.02802 36.4872 3.04579C36.4991 3.12722 36.5112 3.20963 36.5035 3.28936C36.3665 4.65047 36.8109 5.85991 37.4242 7.0414C37.8127 7.79181 38.1547 8.56617 38.4806 9.34584C38.7148 9.90732 39.0608 10.349 39.6036 10.6205C39.9229 10.7788 40.04 11.0063 40.0373 11.3709C40.028 12.8783 40.3314 13.2709 41.7777 13.7259L41.8855 13.7599C42.5283 13.9628 43.172 14.166 43.8133 14.3752C44.3602 14.5535 44.4081 14.6839 44.0887 15.1455C43.9751 15.3101 43.8622 15.4753 43.7493 15.6406C43.3755 16.1875 43.0015 16.7348 42.5999 17.261C42.0158 18.0261 41.9679 18.7871 42.4442 19.6174C42.647 19.9706 42.8262 20.337 43.0052 20.7031C43.0811 20.8583 43.1569 21.0134 43.2346 21.1674C43.6005 21.8952 43.5619 22.6084 43.1441 23.3002C42.9484 23.625 42.7486 23.9473 42.5489 24.2695C42.4254 24.4687 42.302 24.6678 42.1795 24.8676C41.453 26.0517 41.7737 27.0789 43.0496 27.6577C43.5382 27.8788 44.0267 28.1013 44.5153 28.3239C44.841 28.4723 45.1667 28.6207 45.4924 28.7686C45.7373 28.8791 45.9621 29.0134 46.1125 29.2476C46.477 29.8144 46.3214 30.171 45.6601 30.2694C45.1435 30.3466 44.6269 30.4234 44.1102 30.5001C42.5602 30.7304 41.0103 30.9606 39.4626 31.2021C39.1792 31.246 38.9902 31.1755 38.8066 30.972C38.5516 30.6887 38.2906 30.41 38.0295 30.1314C37.8479 29.9375 37.6663 29.7437 37.4868 29.5483C37.1195 29.1478 36.6765 28.9323 36.1256 28.9349C35.7072 28.937 35.2888 28.9353 34.8704 28.9335C34.2099 28.9308 33.5496 28.928 32.8898 28.9403C31.7842 28.9616 31.0245 29.7173 30.9806 30.8229C30.9659 31.2005 30.9696 31.5786 30.9733 31.957C30.9749 32.1267 30.9766 32.2964 30.9766 32.4661ZM3.57603 21.8693C3.56602 22.0301 3.55602 22.1909 3.54544 22.3516L3.54677 22.3529H3.56274C3.55741 22.4241 3.55108 22.4954 3.54475 22.5666C3.53051 22.7269 3.51627 22.8872 3.51351 23.0474C3.49887 23.8883 3.79957 24.6148 4.53667 25.0219C5.70353 25.6672 6.93159 25.8295 8.10377 25.0179C9.29577 24.1928 10.4642 23.3335 11.6324 22.4744C11.7055 22.4206 11.7787 22.3668 11.8518 22.313C12.5583 21.7941 12.9282 21.0716 13.0253 20.2055C13.0561 19.9326 13.0869 19.6597 13.1176 19.3868C13.2036 18.6227 13.2897 17.8584 13.3779 17.0947C13.511 15.9478 12.8018 14.8981 11.6842 14.624C11.2025 14.5069 10.7142 14.4031 10.2233 14.3326C9.20543 14.1849 8.39914 14.5362 7.84698 15.417C7.8092 15.4771 7.77136 15.5373 7.73352 15.5975C7.42744 16.0841 7.12085 16.5715 6.84377 17.0748C6.54042 17.6256 6.11598 17.9729 5.51859 18.1951C4.37036 18.6222 3.75566 19.4923 3.65587 20.7151C3.62396 21.099 3.59999 21.4842 3.57603 21.8693ZM4.97308 21.9671H4.96376H4.96243C4.96456 21.9246 4.96763 21.8821 4.9707 21.8397C4.97724 21.7492 4.98378 21.6589 4.98106 21.5692C4.94247 20.417 5.32699 19.5921 6.55106 19.2595C7.13516 19.0998 7.5383 18.6102 7.85363 18.082C8.01414 17.8129 8.17808 17.5459 8.34199 17.2788C8.55986 16.9239 8.77766 16.5691 8.98723 16.2099C9.22672 15.7988 9.56201 15.6272 10.025 15.7123C10.0877 15.7238 10.1504 15.7351 10.2132 15.7464C10.5741 15.8115 10.9358 15.8767 11.2917 15.9651C11.7999 16.0915 12.0434 16.4454 11.9889 16.9564C11.8869 17.9072 11.7753 18.857 11.6637 19.8066C11.6514 19.9107 11.6392 20.0149 11.627 20.119C11.5724 20.5887 11.3462 20.9612 10.9617 21.2379C10.6326 21.4759 10.3033 21.7137 9.97409 21.9515C9.10686 22.5778 8.23971 23.204 7.37465 23.8338C6.6881 24.334 5.98826 24.1731 5.3057 23.8591C4.97308 23.706 4.88659 23.3668 4.90921 23.0102L4.97308 21.9671Z" fill="white"/>
</svg>
